<svg width="28" height="28" viewBox="0 0 28 28" fill="none" xmlns="http://www.w3.org/2000/svg">
<path d="M20.4843 4.92834C20.9218 6.71334 20.9743 8.65584 20.5018 10.6683C19.3993 15.3321 15.5668 18.9896 10.8593 19.8383C8.31301 20.3021 5.88926 19.9521 3.78051 19.0333C3.29051 18.8146 2.82676 19.3746 3.08051 19.8471C5.39926 24.1171 10.1768 26.8471 15.523 26.1383C20.9743 25.4121 25.3405 20.9671 25.9968 15.5071C26.5218 10.9746 24.5968 6.87959 21.3768 4.35084C20.9655 4.03584 20.3618 4.42084 20.4843 4.92834Z" fill="#FCD53F"/>
<path d="M24.3868 10.9919C24.3868 11.7506 23.7717 12.3657 23.013 12.3657C22.2543 12.3657 21.6393 11.7506 21.6393 10.9919C21.6393 10.2332 22.2543 9.61816 23.013 9.61816C23.7717 9.61816 24.3868 10.2332 24.3868 10.9919ZM13.0817 22.2619C13.0817 23.0206 12.4667 23.6357 11.708 23.6357C10.9493 23.6357 10.3342 23.0206 10.3342 22.2619C10.3342 21.5032 10.9493 20.8882 11.708 20.8882C12.4667 20.8882 13.0817 21.5032 13.0817 22.2619ZM23.4505 16.6007C23.9289 16.6007 24.3167 16.2128 24.3167 15.7344C24.3167 15.256 23.9289 14.8682 23.4505 14.8682C22.9721 14.8682 22.5842 15.256 22.5842 15.7344C22.5842 16.2128 22.9721 16.6007 23.4505 16.6007ZM21.7005 19.2344C21.7005 20.6842 20.5252 21.8594 19.0755 21.8594C17.6257 21.8594 16.4505 20.6842 16.4505 19.2344C16.4505 17.7847 17.6257 16.6094 19.0755 16.6094C20.5252 16.6094 21.7005 17.7847 21.7005 19.2344Z" fill="#F9C23C"/>
</svg>
