<svg width="20" height="20" viewBox="0 0 20 20" fill="none" xmlns="http://www.w3.org/2000/svg">
<path d="M15.0002 1.33989C16.5085 2.21075 17.7632 3.46042 18.64 4.96519C19.5169 6.46997 19.9856 8.17766 19.9997 9.91923C20.0137 11.6608 19.5727 13.3758 18.7203 14.8946C17.8678 16.4133 16.6334 17.6831 15.1394 18.5782C13.6454 19.4733 11.9435 19.9627 10.2022 19.998C8.46093 20.0332 6.74063 19.6131 5.21162 18.7791C3.6826 17.9452 2.3979 16.7264 1.48468 15.2434C0.571469 13.7604 0.0614101 12.0646 0.00500018 10.3239L0 9.99989L0.00500018 9.67589C0.061004 7.94888 0.563555 6.26585 1.46366 4.79088C2.36376 3.31592 3.6307 2.09934 5.14095 1.25977C6.65121 0.420205 8.35325 -0.0137108 10.0811 0.000330246C11.809 0.0143713 13.5038 0.47589 15.0002 1.33989ZM10.0001 3.99989C9.75519 3.99992 9.51878 4.08985 9.33574 4.25261C9.15271 4.41537 9.03577 4.63964 9.00711 4.88289L9.00011 4.99989V9.99989L9.00911 10.1309C9.03191 10.3044 9.09984 10.4689 9.20611 10.6079L9.29311 10.7079L12.2932 13.7079L12.3872 13.7899C12.5625 13.926 12.7782 13.9998 13.0002 13.9998C13.2221 13.9998 13.4378 13.926 13.6132 13.7899L13.7072 13.7069L13.7902 13.6129C13.9262 13.4375 14.0001 13.2219 14.0001 12.9999C14.0001 12.7779 13.9262 12.5623 13.7902 12.3869L13.7072 12.2929L11.0001 9.58489V4.99989L10.9931 4.88289C10.9645 4.63964 10.8475 4.41537 10.6645 4.25261C10.4815 4.08985 10.2451 3.99992 10.0001 3.99989Z" fill="#FFC800"/>
</svg>
