<svg width="24" height="24" viewBox="0 0 24 24" fill="none" xmlns="http://www.w3.org/2000/svg">
<path d="M5.9925 7.5075H18.015C18.42 7.5075 18.75 7.1775 18.7575 6.765V2.9925C18.7575 2.58 18.42 2.25 18.015 2.25H5.9925C5.58 2.25 5.25 2.5875 5.25 2.9925V6.765C5.25 7.1775 5.5875 7.5075 5.9925 7.5075Z" fill="#D3D3D3"/>
<path d="M2.25 9.00751H21.75V21.0075H2.25V9.00751Z" fill="#D3D3D3"/>
<path d="M17.25 3.375V6.39C17.25 6.5925 17.085 6.7575 16.8825 6.7575H16.8675C16.665 6.7575 16.5 6.5925 16.5 6.39V5.265H15V6.39C15 6.5925 14.835 6.7575 14.6325 6.7575H14.6175C14.415 6.7575 14.25 6.5925 14.25 6.39V3.375C14.25 3.1725 14.415 3.0075 14.6175 3.0075H14.6325C14.835 3.0075 15 3.1725 15 3.375V4.5075H16.5V3.375C16.5 3.1725 16.665 3.0075 16.8675 3.0075H16.8825C17.085 3.0075 17.25 3.1725 17.25 3.375ZM9.10499 6.7575C9.36749 6.7575 9.50249 6.6225 9.50249 6.36C9.50249 6.0975 9.35999 6 9.09749 6H8.05499L8.66249 5.3775C8.90249 5.145 9.06749 4.9275 9.17249 4.7175C9.26999 4.515 9.32249 4.305 9.32249 4.08C9.32249 3.7275 9.20999 3.465 8.98499 3.2775C8.75999 3.09 8.42999 3 8.00999 3C7.83749 3 7.65749 3.0225 7.48499 3.06C7.31249 3.0975 7.14749 3.165 6.98249 3.2475C6.89249 3.2925 6.82499 3.36 6.79499 3.435C6.75749 3.51 6.74249 3.54 6.75749 3.615C6.77249 3.69 6.80249 3.7575 6.84749 3.8175C6.89249 3.8775 6.95999 3.915 7.03499 3.9375C7.10999 3.96 7.19999 3.945 7.28999 3.9C7.39499 3.84 7.49249 3.8025 7.58999 3.78C7.68749 3.7575 7.77749 3.7425 7.85999 3.7425C8.19749 3.7425 8.37749 3.9225 8.37749 4.185C8.37749 4.29 8.34749 4.395 8.28749 4.5C8.22749 4.605 8.12999 4.7325 7.99499 4.875L7.06499 5.865C6.98999 5.94 6.93749 6.015 6.89249 6.09C6.84749 6.165 6.83999 6.225 6.83999 6.3225C6.83999 6.465 6.87749 6.57 6.94499 6.6375C7.01249 6.7125 7.12499 6.7425 7.27499 6.7425H9.10499V6.7575ZM12.7575 5.6475C12.7425 5.85 12.57 6 12.3675 6H11.9925V6.3675C11.9925 6.57 11.8425 6.7425 11.64 6.7575C11.4225 6.7725 11.2425 6.6 11.2425 6.3825V6H10.11C10.0425 6 9.98249 5.9775 9.92249 5.9475C9.91499 5.94 9.90749 5.9475 9.89999 5.94C9.89249 5.9325 9.88499 5.925 9.87749 5.9175C9.85499 5.9025 9.83999 5.8875 9.82499 5.865C9.80999 5.8425 9.79499 5.8275 9.78749 5.805C9.77999 5.7825 9.76499 5.7675 9.76499 5.7375C9.75749 5.715 9.74999 5.685 9.74999 5.6625C9.74999 5.6475 9.74249 5.64 9.74249 5.625C9.74249 5.61 9.74999 5.6025 9.74999 5.595C9.74999 5.5725 9.75749 5.5425 9.76499 5.52C9.77249 5.4975 9.77999 5.475 9.79499 5.4525C9.80249 5.445 9.80249 5.43 9.80999 5.4225L11.3175 3.1725C11.325 3.165 11.3325 3.1575 11.34 3.15C11.355 3.1275 11.37 3.1125 11.3925 3.0975C11.415 3.0825 11.43 3.0675 11.4525 3.06C11.475 3.045 11.4975 3.0375 11.52 3.03C11.5425 3.0225 11.565 3.015 11.595 3.015C11.61 3.015 11.6175 3.0075 11.6325 3.0075C11.6475 3.0075 11.655 3.015 11.67 3.015C11.6925 3.015 11.715 3.0225 11.7375 3.03C11.76 3.0375 11.7825 3.045 11.805 3.06C11.8125 3.0675 11.8275 3.0675 11.835 3.075C11.8425 3.0825 11.85 3.09 11.8575 3.0975C11.88 3.1125 11.895 3.1275 11.91 3.15C11.925 3.1725 11.94 3.1875 11.9475 3.21C11.955 3.2325 11.97 3.2475 11.97 3.2775C11.9775 3.3 11.985 3.33 11.985 3.3525C11.985 3.3675 11.9925 3.375 11.9925 3.39V5.265H12.375C12.6 5.25 12.7725 5.43 12.7575 5.6475ZM11.25 5.25V4.6125L10.8225 5.25H11.25Z" fill="#533566"/>
<path d="M7.5 7.50751H8.25V9.00751H7.5V7.50751ZM15.75 7.50751H16.5V9.00751H15.75V7.50751Z" fill="#433B6B"/>
<path d="M10.5 21.0075H3.75V13.95C3.75 13.7025 3.945 13.5075 4.1925 13.5075H10.0575C10.305 13.5075 10.5 13.7025 10.5 13.95V21.0075Z" fill="#635994"/>
<path d="M9.75001 14.67V19.845C9.75001 20.07 9.56251 20.2575 9.33751 20.2575H7.92001C7.69501 20.2575 7.50751 20.07 7.50751 19.845V14.67C7.50751 14.445 7.69501 14.2575 7.92001 14.2575H9.33751C9.56251 14.2575 9.75001 14.445 9.75001 14.67Z" fill="#83CBFF"/>
<path d="M6.75001 14.67V19.845C6.75001 20.07 6.56251 20.2575 6.33751 20.2575H4.92001C4.69501 20.2575 4.50751 20.07 4.50751 19.845V14.67C4.50751 14.445 4.69501 14.2575 4.92001 14.2575H6.33751C6.56251 14.2575 6.75001 14.445 6.75001 14.67Z" fill="#83CBFF"/>
<path d="M13.1175 18.0075H19.14C19.335 18.0075 19.5 17.8425 19.5075 17.64V15.3675C19.5075 15.165 19.3425 15 19.14 15H13.1175C12.915 15 12.75 15.165 12.75 15.3675V17.64C12.75 17.8425 12.915 18.0075 13.1175 18.0075Z" fill="#83CBFF"/>
<path d="M21.93 12.0075H2.0775C1.7625 12.0075 1.5 11.7525 1.5 11.43V9.5775C1.5 9.2625 1.755 9 2.0775 9H21.93C22.245 9 22.5075 9.255 22.5075 9.5775V11.43C22.5 11.7525 22.245 12.0075 21.93 12.0075Z" fill="#F8312F"/>
</svg>
