<svg width="286" height="608" viewBox="0 0 286 608" fill="none" xmlns="http://www.w3.org/2000/svg">
<g clip-path="url(#clip0_10716_15428)">
<rect x="272.5" y="452" width="12" height="108" rx="6" fill="#C4C5C6"/>
<rect x="0.5" y="452" width="12" height="108" rx="6" fill="#C4C5C6"/>
<rect x="0.5" y="48" width="12" height="108" rx="6" fill="#C4C5C6"/>
<rect x="273.5" y="48" width="12" height="108" rx="6" fill="#C4C5C6"/>
<rect x="6.5" width="272" height="608" rx="18" fill="#F5F5F5"/>
<g clip-path="url(#clip1_10716_15428)">
<mask id="mask0_10716_15428" style="mask-type:luminance" maskUnits="userSpaceOnUse" x="240" y="25" width="19" height="16">
<path d="M258.667 25.6665H240.333V40.3332H258.667V25.6665Z" fill="white"/>
</mask>
<g mask="url(#mask0_10716_15428)">
<path d="M240.333 32.9849C240.333 33.2706 240.459 33.5475 240.675 33.7544L246.951 39.9775C247.176 40.1945 247.425 40.3016 247.693 40.3016C248.283 40.3016 248.719 39.883 248.719 39.3134C248.719 39.0202 248.599 38.7576 248.411 38.5801L246.279 36.4368L242.733 33.2199L242.394 33.8243L245.687 34.0168H257.265C257.89 34.0168 258.315 33.5939 258.315 32.9849C258.315 32.376 257.89 31.9531 257.265 31.9531H245.687L242.394 32.1455L242.733 32.7594L246.279 29.5331L248.411 27.388C248.599 27.2011 248.719 26.9479 248.719 26.6547C248.719 26.0851 248.283 25.6665 247.693 25.6665C247.425 25.6665 247.176 25.7659 246.935 26.0062L240.675 32.2154C240.459 32.4223 240.333 32.6993 240.333 32.9849Z" fill="#747678"/>
</g>
</g>
</g>
<defs>
<clipPath id="clip0_10716_15428">
<rect width="285" height="608" fill="white" transform="translate(0.5)"/>
</clipPath>
<clipPath id="clip1_10716_15428">
<rect width="236" height="58" fill="white" transform="translate(24.5 4)"/>
</clipPath>
</defs>
</svg>
