<?xml version="1.0" encoding="iso-8859-1"?>
<!-- Generator: Adobe Illustrator 22.1.0, SVG Export Plug-In . SVG Version: 6.00 Build 0)  -->
<svg version="1.1" id="&#xB808;&#xC774;&#xC5B4;_1" xmlns="http://www.w3.org/2000/svg" xmlns:xlink="http://www.w3.org/1999/xlink"
	 x="0px" y="0px" viewBox="0 0 1280 1024" style="enable-background:new 0 0 1280 1024;" xml:space="preserve">
<g id="XMLID_1_">
	<g>
		<path style="fill:#929496;" d="M1240,241.35v447.61c0,29.86-15.64,59.91-40.83,78.42c-17.74,13.01-52.8,20.83-63.13,22.92
			c-162.49,32.75-328.81,49.35-494.35,49.35s-331.87-16.6-494.36-49.35c-10.33-2.09-45.39-9.91-63.11-22.91
			c-25.19-18.51-40.85-48.56-40.85-78.43V241.35c0-29.87,15.66-59.91,40.85-78.41c17.72-13.02,52.78-20.84,63.11-22.93
			c162.5-32.74,328.82-49.34,494.35-49.34c165.54,0,331.87,16.6,494.36,49.34c10.33,2.09,45.39,9.91,63.12,22.93
			C1224.35,181.44,1240,211.48,1240,241.35z M1233.78,688.96V241.35c0-27.92-14.68-56.05-38.31-73.39
			c-16.7-12.27-50.65-19.82-60.66-21.85C972.72,113.45,806.8,96.89,641.68,96.89c-165.11,0-331.02,16.56-493.12,49.22
			c-10.01,2.03-43.96,9.58-60.65,21.84c-23.64,17.35-38.32,45.48-38.32,73.4v447.61c0,27.92,14.68,56.05,38.31,73.41
			c16.7,12.26,50.65,19.81,60.66,21.83c162.09,32.67,328,49.23,493.13,49.23s331.03-16.56,493.13-49.23
			c10-2.02,43.95-9.57,60.66-21.83C1219.11,745.01,1233.78,716.88,1233.78,688.96z"/>
		<path style="fill:#FFFFFF;" d="M1233.78,241.35v447.61c0,27.92-14.67,56.05-38.3,73.41c-16.71,12.26-50.66,19.81-60.66,21.83
			c-162.1,32.67-328,49.23-493.13,49.23s-331.04-16.56-493.13-49.23c-10.01-2.02-43.96-9.57-60.66-21.83
			c-23.63-17.36-38.31-45.49-38.31-73.41V241.35c0-27.92,14.68-56.05,38.32-73.4c16.69-12.26,50.64-19.81,60.65-21.84
			c162.1-32.66,328.01-49.22,493.12-49.22c165.12,0,331.04,16.56,493.13,49.22c10.01,2.03,43.96,9.58,60.66,21.85
			C1219.1,185.3,1233.78,213.43,1233.78,241.35z"/>
	</g>
	<g>
	</g>
</g>
<g>
	<linearGradient id="SVGID_1_" gradientUnits="userSpaceOnUse" x1="200.0065" y1="447.6636" x2="1083.36" y2="447.6636">
		<stop  offset="0.172" style="stop-color:#00A550"/>
		<stop  offset="0.6613" style="stop-color:#2E3091"/>
	</linearGradient>
	<path style="fill:url(#SVGID_1_);" d="M1047.058,411.36v-38.859c0-30.41-12.587-47.511-38.274-52.021
		c-0.16-0.029-0.311-0.055-0.461-0.083c-1.546-0.261-3.136-0.469-4.777-0.638c-0.457-0.049-0.911-0.097-1.379-0.14
		c-1.385-0.121-2.801-0.206-4.248-0.268c-0.42-0.018-0.816-0.061-1.245-0.073l-1.7-0.055h-1.191H289.829h-0.242
		c-35.852,0-53.278,17.426-53.278,53.278v38.872l-36.302,36.288l36.302,36.307v38.855c0,30.413,12.591,47.517,38.281,52.024
		c0.153,0.026,0.297,0.055,0.454,0.08c1.542,0.261,3.139,0.473,4.777,0.643c0.457,0.05,0.914,0.097,1.385,0.14
		c1.379,0.121,2.798,0.206,4.241,0.261c0.42,0.018,0.816,0.066,1.246,0.078l1.703,0.055h1.191h703.955h0.242
		c35.852,0,53.275-17.43,53.275-53.276v-38.872l36.302-36.295L1047.058,411.36z"/>
	<path style="fill:#F1F1F2;" d="M616.16,521.321H515.726c-12.413,0-23.196-4.46-32.327-13.379
		c-8.926-9.143-13.393-19.915-13.393-32.334v-54.82c0-12.49,4.466-23.203,13.393-32.127c8.984-8.991,19.764-13.487,32.327-13.487
		h99.568v36.507h-95.92c-3.583,0-6.606,1.252-9.107,3.748c-2.501,2.498-3.747,5.499-3.747,8.998v47.537
		c0,3.572,1.246,6.602,3.747,9.1c2.501,2.498,5.524,3.743,9.107,3.743h60.273v-21.946h-36.5v-29.229h73.014V521.321z"/>
	<path style="fill:#F1F1F2;" d="M778.778,477.426c0,11.562-4.129,21.806-12.41,30.73c-8.281,8.78-18.136,13.166-29.549,13.166
		h-95.088v-36.513h89.625c2.921,0,5.463-1.106,7.606-3.319c2.211-2.211,3.313-4.78,3.313-7.71c0-2.916-1.102-5.456-3.313-7.601
		c-2.143-2.211-4.685-3.317-7.606-3.317H674.71c-11.557,0-21.453-4.422-29.649-13.275c-8.291-8.92-12.424-19.132-12.424-30.621
		c0-11.422,4.133-21.592,12.424-30.517c8.196-8.846,18.091-13.275,29.649-13.275h94.968v36.507H680.18
		c-2.931,0-5.5,1.113-7.711,3.324c-2.218,2.139-3.317,4.678-3.317,7.595c0,2.928,1.099,5.504,3.317,7.71
		c2.211,2.211,4.78,3.324,7.711,3.324h56.639c11.485,0,21.336,4.429,29.549,13.28C774.649,455.833,778.778,466.003,778.778,477.426z
		"/>
	<g>
		<path style="fill:none;" d="M401.192,484.808c3.498,0,6.5-1.246,8.998-3.743c2.494-2.498,3.746-5.528,3.746-9.1v-47.537
			c0-3.499-1.252-6.5-3.746-8.998c-2.498-2.496-5.5-3.748-8.998-3.748H340.81v73.127H401.192z"/>
		<path style="fill:#F2F2F2;" d="M404.83,375.174h-64.02v36.507h60.382c3.498,0,6.5,1.252,8.998,3.748
			c2.494,2.498,3.746,5.499,3.746,8.998v47.537c0,3.572-1.252,6.602-3.746,9.1c-2.498,2.498-5.5,3.743-8.998,3.743H340.81v-73.127
			h-32.586v11.738v2.65v44.048v11.13v25.585c0,8.699,3.883,13.529,11.629,14.49h84.977c12.496,0,23.203-4.46,32.119-13.379
			c8.998-8.998,13.492-19.775,13.492-32.334v-54.82c0-12.49-4.494-23.203-13.492-32.127
			C428.033,379.67,417.325,375.174,404.83,375.174z"/>
		<path style="fill:#F2F2F2;" d="M901.805,484.808V375.174h-36.504v109.634h-21.712c-3.576,0-6.606-1.246-9.104-3.743
			c-2.501-2.498-3.747-5.528-3.747-9.1v-96.79h-36.517v100.434c0,12.419,4.47,23.191,13.386,32.334
			c9.128,8.92,19.903,13.379,32.32,13.379h96.306v-36.513H901.805z"/>
		<path style="fill:#F2F2F2;" d="M972.775,472.863h0.113v-2.65v-44.048v-11.13h-0.113v-27.9
			c-0.607-6.768-3.999-10.759-10.185-11.961h-26.332v109.385h36.517V472.863z"/>
		<rect x="936.233" y="484.559" style="fill:#2A378F;" width="0.024" height="0.249"/>
	</g>
	<path style="fill:#FFFFFF;" d="M314.823,383.121c0,8.633-7.005,15.631-15.638,15.631c-8.633,0-15.635-6.998-15.635-15.631
		c0-8.635,7.002-15.64,15.635-15.64C307.818,367.481,314.823,374.487,314.823,383.121z"/>
	<path style="fill:#FFFFFF;" d="M968.544,512.207c0-8.639,7.005-15.638,15.638-15.638c8.636,0,15.635,6.998,15.635,15.638
		c0,8.635-6.998,15.633-15.635,15.633C975.549,527.841,968.544,520.842,968.544,512.207z"/>
</g>
<path style="fill:#929496;" d="M641.693,821.618c-164.863,0-330.276-16.552-491.631-49.183c-6.927-1.392-24.704-5.401-39.738-12.441
	c-23.142-10.851-48.047-37.705-48.047-71.035V241.353c0-33.325,24.889-60.164,48.016-70.999
	c15.44-7.237,34.347-11.375,39.776-12.472c161.4-32.644,326.809-49.197,491.624-49.197c164.802,0,330.208,16.552,491.615,49.2
	c5.401,1.088,24.26,5.207,39.748,12.449c23.142,10.842,48.037,37.686,48.037,71.018v447.606c0,33.323-24.892,60.177-48.02,71.028
	c-15.075,7.046-32.842,11.056-39.783,12.448C971.952,805.065,806.547,821.618,641.693,821.618z M641.693,139.793
	c-162.748,0-326.079,16.342-485.462,48.581c-3.262,0.659-20.122,4.234-32.74,10.146c-14.594,6.841-30.106,24.173-30.106,42.833
	v447.606c0,18.665,15.526,36.023,30.136,42.871c9.776,4.572,23.299,8.223,32.692,10.114
	c159.346,32.221,322.68,48.566,485.479,48.566c162.785,0,326.116-16.345,485.449-48.562c9.404-1.894,22.93-5.545,32.737-10.124
	c14.583-6.848,30.109-24.199,30.109-42.864V241.353c0-18.665-15.519-36.004-30.119-42.845c-12.659-5.924-29.471-9.479-32.716-10.129
	C967.759,156.136,804.431,139.793,641.693,139.793z"/>
<g>
	<path style="fill:#2A378F;" d="M222.199,696.073c-0.358,0.268-0.689,0.462-0.986,0.591c-1.972,0.588-4.316,1.094-7.036,1.512
		c-2.716,0.432-5.555,0.773-8.514,1.034c-2.951,0.261-5.899,0.437-8.824,0.534c-2.924,0.104-5.528,0.05-7.793-0.145
		c-2.153-0.128-3.784-0.688-4.883-1.665c-1.113-0.979-1.658-2.607-1.658-4.891v-46.271c0-2.28,0.43-3.876,1.297-4.794
		c0.867-0.911,2.433-1.367,4.705-1.367h25.984c0.839,0,1.252,0.456,1.252,1.367v6.756c0,0.844-0.413,1.269-1.252,1.269h-19.982
		c-1.136,0-1.703,0.553-1.703,1.665v35.707c0,1.039,0.167,1.713,0.495,1.998c0.328,0.299,1.055,0.51,2.191,0.638
		c1.256,0.201,2.9,0.261,4.931,0.201c2.03-0.068,4.197-0.213,6.497-0.444c2.296-0.232,4.576-0.51,6.807-0.833
		c2.242-0.322,4.201-0.687,5.876-1.075c0.413-0.128,0.798-0.128,1.16,0c0.359,0.126,0.594,0.461,0.72,0.978l1.075,5.966
		C222.674,695.387,222.558,695.819,222.199,696.073z M244.245,634.154c0-0.844,0.41-1.269,1.249-1.269h7.705
		c0.778,0,1.167,0.425,1.167,1.269v90.292c0,0.846-0.389,1.276-1.167,1.276h-7.793c-0.778,0-1.16-0.43-1.16-1.276v-46.271h-8.339
		v42.56c0,0.906-0.389,1.36-1.164,1.36h-7.35c-0.836,0-1.252-0.454-1.252-1.36v-84.818c0-0.851,0.416-1.276,1.252-1.276h7.35
		c0.775,0,1.164,0.425,1.164,1.276v32.866h8.339V634.154z"/>
	<path style="fill:#2A378F;" d="M331.154,642.662c0,6.326-0.297,12.231-0.894,17.706c-0.594,5.48-1.433,10.728-2.508,15.747h14.157
		c0.3,0,0.601,0.164,0.901,0.491c0.297,0.329,0.444,0.657,0.444,0.979v6.457c0,0.328-0.147,0.65-0.444,0.978
		c-0.3,0.329-0.601,0.493-0.901,0.493H307.32v38.154c0,0.914-0.416,1.368-1.252,1.368h-7.797c-0.836,0-1.252-0.454-1.252-1.368
		v-38.154h-33.156c-0.358,0-0.659-0.164-0.898-0.493c-0.239-0.327-0.355-0.65-0.355-0.978v-6.457c0-0.389,0.116-0.735,0.355-1.027
		c0.239-0.299,0.539-0.444,0.898-0.444h54.032c0.836-3.974,1.553-8.519,2.15-13.645c0.594-5.116,0.897-10.219,0.897-15.31
		c0-0.906-0.211-1.478-0.628-1.708c-0.416-0.23-1.041-0.346-1.877-0.346h-43.195c-0.297,0-0.594-0.116-0.894-0.34
		c-0.301-0.232-0.447-0.498-0.447-0.832v-7.04c0-0.389,0.147-0.686,0.447-0.88c0.3-0.195,0.597-0.299,0.894-0.299h49.999
		c1.914,0,3.378,0.56,4.395,1.672C330.649,638.493,331.154,640.251,331.154,642.662z"/>
	<path style="fill:#2A378F;" d="M427.033,709.384c-0.297,0.329-0.594,0.486-0.897,0.486h-78.044c-0.355,0-0.659-0.145-0.897-0.437
		c-0.236-0.298-0.355-0.638-0.355-1.032v-6.459c0-0.382,0.119-0.735,0.355-1.027c0.239-0.292,0.543-0.43,0.897-0.43h33.692v-20.944
		c0-0.904,0.416-1.367,1.256-1.367h7.797c0.355,0,0.672,0.133,0.939,0.389c0.269,0.268,0.403,0.588,0.403,0.978v20.944h33.958
		c0.304,0,0.6,0.157,0.897,0.485c0.3,0.329,0.45,0.65,0.45,0.972v6.459C427.483,708.729,427.333,709.057,427.033,709.384z
		 M357.322,683.066c-0.239,0.133-0.553,0.145-0.942,0.048c-0.389-0.102-0.727-0.401-1.03-0.93l-3.225-6.068
		c-0.239-0.517-0.256-0.984-0.048-1.416c0.212-0.42,0.526-0.698,0.942-0.826c4.48-1.836,8.407-3.803,11.789-5.924
		c3.371-2.116,6.221-4.552,8.554-7.285c2.334-2.74,4.183-5.876,5.555-9.393c1.372-3.523,2.269-7.594,2.689-12.226
		c0.058-0.45,0.195-0.911,0.403-1.373c0.211-0.456,0.553-0.643,1.03-0.583l7.797,0.389c1.014,0.066,1.495,0.783,1.433,2.153
		c-0.061,1.696-0.242,3.295-0.543,4.789c0.717,3.134,1.976,6.135,3.767,8.998c1.791,2.873,3.986,5.497,6.586,7.879
		c2.6,2.382,5.48,4.484,8.646,6.312c3.17,1.829,6.453,3.264,9.861,4.303c0.355,0.126,0.59,0.406,0.713,0.833
		c0.119,0.424,0.089,0.802-0.085,1.129l-2.962,6.251c-0.478,0.984-1.194,1.342-2.146,1.088c-2.75-0.79-5.511-1.902-8.291-3.342
		c-2.774-1.433-5.453-3.117-8.019-5.043c-2.573-1.931-4.931-4.088-7.077-6.476c-2.153-2.382-3.979-4.946-5.47-7.698
		c-2.989,5.755-7.046,10.656-12.188,14.71C369.926,677.409,364.013,680.642,357.322,683.066z"/>
	<path style="fill:#2A378F;" d="M511.266,708.698c-0.297,0.327-0.597,0.486-0.901,0.486h-78.043c-0.362,0-0.659-0.159-0.898-0.486
		c-0.239-0.328-0.355-0.65-0.355-0.978v-6.459c0-0.394,0.116-0.729,0.355-1.026c0.239-0.292,0.536-0.443,0.898-0.443h78.043
		c0.304,0,0.604,0.164,0.901,0.491c0.3,0.327,0.447,0.657,0.447,0.978v6.459C511.713,708.048,511.567,708.371,511.266,708.698z
		 M443.074,648.927c-0.297,0-0.628-0.164-0.983-0.492c-0.362-0.323-0.536-0.687-0.536-1.077v-5.971c0-0.322,0.174-0.645,0.536-0.979
		c0.355-0.323,0.686-0.492,0.983-0.492h56.54c0.362,0,0.672,0.152,0.942,0.444c0.273,0.297,0.406,0.643,0.406,1.027v6.069
		c0,0.389-0.133,0.73-0.406,1.027c-0.27,0.297-0.58,0.444-0.942,0.444h-8.961v26.41h10.663c0.358,0,0.675,0.14,0.945,0.444
		c0.266,0.292,0.403,0.631,0.403,1.027v6.064c0,0.389-0.137,0.735-0.403,1.027c-0.27,0.292-0.587,0.444-0.945,0.444h-59.945
		c-0.3,0-0.611-0.164-0.942-0.493c-0.328-0.328-0.491-0.686-0.491-1.075v-5.966c0-0.334,0.164-0.657,0.491-0.979
		c0.331-0.328,0.642-0.492,0.942-0.492h10.663v-26.41H443.074z M462.073,648.927v26.41h18.542v-26.41H462.073z"/>
	<path style="fill:#2A378F;" d="M595.493,700.485c0.3,0.321,0.447,0.679,0.447,1.075v6.161c0,0.328-0.147,0.65-0.447,0.978
		c-0.297,0.327-0.601,0.486-0.894,0.486h-78.047c-0.358,0-0.659-0.159-0.901-0.486c-0.239-0.328-0.352-0.65-0.352-0.978v-6.161
		c0-1.046,0.413-1.568,1.252-1.568h78.047C594.892,699.992,595.196,700.156,595.493,700.485z M584.246,685.168
		c-0.208,0.23-0.461,0.346-0.754,0.346h-50.009c-2.389,0-4.057-0.588-5.016-1.762c-0.956-1.172-1.437-2.904-1.437-5.188v-33.847
		c0-2.479,0.512-4.161,1.529-5.043c1.014-0.872,2.651-1.315,4.924-1.315h49.197c0.836,0,1.256,0.426,1.256,1.273v6.55
		c0,0.918-0.42,1.374-1.256,1.374h-43.727c-1.075,0-1.61,0.559-1.61,1.665v8.116h44.174c0.294,0,0.577,0.128,0.85,0.396
		c0.269,0.256,0.403,0.553,0.403,0.88v6.362c0,0.382-0.133,0.712-0.403,0.978c-0.273,0.256-0.556,0.389-0.85,0.389h-44.174v8.317
		c0,0.711,0.102,1.186,0.311,1.416c0.205,0.225,0.641,0.34,1.3,0.34h44.178c0.474,0,0.829,0.061,1.071,0.194
		c0.239,0.135,0.362,0.456,0.362,0.979v6.457C584.563,684.566,584.458,684.943,584.246,685.168z"/>
	<path style="fill:#2A378F;" d="M617.313,719.02c-0.273-0.29-0.406-0.638-0.406-1.032v-27.777c-3.525,0.126-6.555,0.207-9.093,0.242
		c-2.542,0.031-5.009,0.012-7.395-0.048c-0.358,0-0.658-0.152-0.894-0.443c-0.242-0.292-0.362-0.633-0.362-1.027v-6.556
		c0-0.971,0.423-1.469,1.255-1.469c9.496,0,17.921-0.171,25.267-0.536c7.35-0.358,13.116-0.892,17.296-1.616
		c0.297-0.061,0.628-0.043,0.986,0.055c0.358,0.097,0.563,0.408,0.628,0.93l0.624,6.161c0.062,0.522-0.044,0.93-0.311,1.221
		c-0.269,0.292-0.553,0.472-0.853,0.541c-1.075,0.194-2.331,0.389-3.763,0.582c-1.433,0.194-2.911,0.377-4.436,0.541
		c-1.525,0.164-3.047,0.31-4.569,0.438c-1.522,0.133-2.945,0.231-4.255,0.297v28.465c0,0.394-0.133,0.742-0.406,1.032
		c-0.266,0.292-0.614,0.438-1.03,0.438h-7.35C617.893,719.459,617.583,719.312,617.313,719.02z M621.299,638.358
		c2.628,0,5.091,0.493,7.391,1.467c2.3,0.979,4.299,2.315,6.005,4.011c1.703,1.701,3.044,3.67,4.03,5.917
		c0.99,2.254,1.478,4.618,1.478,7.097c0,2.479-0.488,4.823-1.478,7.041c-0.986,2.218-2.327,4.156-4.03,5.826
		c-1.706,1.659-3.705,2.977-6.005,3.955c-2.3,0.984-4.763,1.471-7.391,1.471c-2.627,0-5.091-0.486-7.391-1.471
		c-2.3-0.978-4.303-2.296-6.006-3.955c-1.699-1.67-3.047-3.608-4.033-5.826c-0.983-2.218-1.481-4.562-1.481-7.041
		c0-2.479,0.498-4.844,1.481-7.097c0.986-2.247,2.334-4.216,4.033-5.917c1.703-1.696,3.706-3.032,6.006-4.011
		C616.208,638.851,618.672,638.358,621.299,638.358z M621.299,647.262c-1.436,0-2.719,0.273-3.852,0.826
		c-1.14,0.555-2.105,1.276-2.914,2.158c-0.808,0.88-1.423,1.907-1.836,3.079c-0.42,1.179-0.631,2.346-0.631,3.525
		c0,1.172,0.211,2.344,0.631,3.518c0.413,1.177,1.027,2.204,1.836,3.079c0.809,0.88,1.774,1.604,2.914,2.157
		c1.133,0.553,2.416,0.833,3.852,0.833c1.433,0,2.719-0.28,3.849-0.833c1.14-0.553,2.109-1.276,2.918-2.157
		c0.805-0.875,1.433-1.902,1.877-3.079c0.45-1.174,0.675-2.346,0.675-3.518c0-1.179-0.225-2.346-0.675-3.525
		c-0.444-1.172-1.072-2.199-1.877-3.079c-0.809-0.882-1.778-1.604-2.918-2.158C624.018,647.535,622.732,647.262,621.299,647.262z
		 M657.495,721.511h-7.254c-0.836,0-1.255-0.423-1.255-1.269v-17.03h-12.27c-0.304,0-0.587-0.121-0.856-0.382
		c-0.269-0.261-0.403-0.553-0.403-0.887v-6.944c0-0.327,0.133-0.602,0.403-0.826c0.27-0.225,0.553-0.341,0.856-0.341h12.27v-58.116
		c0-0.844,0.42-1.269,1.255-1.269h7.254c0.843,0,1.259,0.425,1.259,1.269v84.527C658.755,721.088,658.338,721.511,657.495,721.511z
		 M673.809,725.913h-7.797c-0.778,0-1.16-0.43-1.16-1.266v-90.493c0-0.844,0.416-1.269,1.249-1.269h7.708
		c0.775,0,1.164,0.425,1.164,1.269v90.493C674.973,725.483,674.584,725.913,673.809,725.913z"/>
	<path style="fill:#2A378F;" d="M710.903,703.322c-3.409,0-6.466-0.804-9.186-2.407c-2.716-1.597-5.016-3.815-6.9-6.652
		c-1.883-2.832-3.33-6.239-4.347-10.22c-1.01-3.978-1.518-8.353-1.518-13.104c0-4.897,0.508-9.332,1.518-13.313
		c1.017-3.973,2.464-7.363,4.347-10.17c1.884-2.802,4.183-4.97,6.9-6.507c2.719-1.53,5.777-2.293,9.186-2.293
		c3.166,0,6.032,0.647,8.602,1.954c2.566,1.3,4.794,3.146,6.678,5.528c1.877,2.382,3.388,5.268,4.528,8.652
		c1.133,3.397,1.846,7.183,2.143,11.351h13.355v-31.986c0-0.844,0.389-1.269,1.164-1.269h7.974c0.778,0,1.167,0.425,1.167,1.269
		v90.292c0,0.846-0.389,1.276-1.167,1.276h-7.974c-0.775,0-1.164-0.43-1.164-1.276v-48.914h-13.355
		c-0.297,4.242-1.01,8.075-2.143,11.496c-1.14,3.426-2.651,6.341-4.528,8.754c-1.884,2.418-4.112,4.277-6.678,5.577
		C716.936,702.666,714.069,703.322,710.903,703.322z M722.914,670.939c0-3.001-0.273-5.857-0.805-8.561
		c-0.543-2.709-1.32-5.079-2.334-7.096c-1.017-2.016-2.273-3.634-3.76-4.842c-1.501-1.203-3.197-1.805-5.111-1.805
		c-1.853,0-3.508,0.602-4.975,1.805c-1.46,1.208-2.699,2.825-3.712,4.842c-1.02,2.016-1.798,4.386-2.334,7.096
		c-0.532,2.704-0.809,5.56-0.809,8.561c0,2.934,0.276,5.748,0.809,8.462c0.536,2.704,1.313,5.086,2.334,7.14
		c1.014,2.052,2.252,3.701,3.712,4.939c1.468,1.239,3.122,1.86,4.975,1.86c1.914,0,3.61-0.621,5.111-1.86
		c1.487-1.239,2.743-2.887,3.76-4.939c1.014-2.054,1.791-4.436,2.334-7.14C722.641,676.687,722.914,673.874,722.914,670.939z"/>
	<path style="fill:#2A378F;" d="M848.182,708.698c-0.3,0.327-0.601,0.486-0.901,0.486h-78.04c-0.362,0-0.662-0.159-0.897-0.486
		c-0.246-0.328-0.362-0.65-0.362-0.978v-6.459c0-0.394,0.116-0.729,0.362-1.026c0.235-0.292,0.536-0.443,0.897-0.443h30.106v-27.195
		c0-0.978,0.416-1.471,1.249-1.471h7.8c0.833,0,1.256,0.493,1.256,1.471v27.195h37.629c0.3,0,0.601,0.164,0.901,0.491
		c0.293,0.327,0.45,0.657,0.45,0.978v6.459C848.632,708.048,848.475,708.371,848.182,708.698z M838.328,646.576
		c0,8.803-0.286,16.86-0.853,24.162c-0.57,7.309-1.3,13.373-2.191,18.197c-0.13,0.522-0.317,0.978-0.587,1.367
		c-0.273,0.396-0.645,0.559-1.122,0.493l-7.077-0.688c-0.485-0.055-0.809-0.292-0.986-0.686c-0.181-0.384-0.211-0.845-0.092-1.367
		c0.416-2.412,0.788-5.195,1.119-8.362c0.331-3.165,0.601-6.427,0.808-9.781c0.212-3.359,0.372-6.671,0.492-9.933
		c0.116-3.263,0.184-6.229,0.184-8.907c0-0.911-0.198-1.476-0.584-1.708c-0.389-0.224-1.003-0.34-1.839-0.34h-44.086
		c-0.3,0-0.604-0.116-0.901-0.353c-0.294-0.218-0.44-0.498-0.44-0.826v-7.041c0-0.396,0.146-0.687,0.44-0.887
		c0.297-0.189,0.601-0.287,0.901-0.287h50.808c1.911,0,3.388,0.56,4.429,1.665C837.802,642.401,838.328,644.164,838.328,646.576z"/>
	<path style="fill:#2A378F;" d="M932.32,684.827c-0.3,0.329-0.601,0.486-0.894,0.486h-77.958c-0.358,0-0.659-0.145-0.901-0.437
		c-0.236-0.298-0.352-0.638-0.352-1.027v-6.555c0-0.911,0.413-1.374,1.252-1.374h77.958c0.293,0,0.594,0.152,0.894,0.444
		c0.3,0.292,0.45,0.601,0.45,0.93v6.555C932.77,684.178,932.62,684.499,932.32,684.827z M920.67,708.796
		c0,5.347-2.433,9.52-7.302,12.525c-4.869,2.992-11.847,4.494-20.924,4.494c-9.08,0-16.058-1.501-20.924-4.494
		c-4.872-3.005-7.302-7.178-7.302-12.525c0-5.286,2.429-9.441,7.302-12.473c4.866-3.032,11.844-4.55,20.924-4.55
		c9.076,0,16.054,1.518,20.924,4.55C918.238,699.354,920.67,703.51,920.67,708.796z M920.357,667.068
		c-0.212,0.232-0.464,0.341-0.761,0.341h-47.941c-2.389,0-4.064-0.583-5.016-1.75c-0.952-1.184-1.433-2.911-1.433-5.188v-19.375
		c0-2.477,0.501-4.152,1.525-5.035c1.014-0.875,2.658-1.317,4.924-1.317h47.133c0.839,0,1.255,0.418,1.255,1.269v6.649
		c0,0.913-0.416,1.373-1.255,1.373h-41.482c-1.14,0-1.706,0.548-1.706,1.658v10.76c0,0.522,0.12,0.948,0.358,1.276
		c0.242,0.323,0.683,0.486,1.348,0.486h41.936c0.474,0,0.829,0.067,1.068,0.195c0.246,0.133,0.362,0.456,0.362,0.984v6.555
		C920.67,666.468,920.565,666.838,920.357,667.068z M892.445,700.381c-5.978,0-10.469,0.826-13.482,2.498
		c-3.023,1.663-4.528,3.67-4.528,6.014c0,2.279,1.505,4.258,4.528,5.924c3.013,1.653,7.503,2.486,13.482,2.486
		c5.971,0,10.469-0.833,13.488-2.486c3.016-1.665,4.521-3.644,4.521-5.924c0-2.344-1.505-4.351-4.521-6.014
		C902.914,701.207,898.416,700.381,892.445,700.381z"/>
	<path style="fill:#2A378F;" d="M988.365,654.255c-0.266,0.292-0.583,0.437-0.942,0.437h-47.487c-0.362,0-0.689-0.157-0.99-0.485
		c-0.3-0.329-0.444-0.681-0.444-1.077v-5.48c0-0.323,0.157-0.669,0.492-1.02c0.327-0.365,0.672-0.541,1.03-0.541h47.399
		c0.358,0,0.676,0.164,0.942,0.486c0.27,0.328,0.406,0.686,0.406,1.075v5.577C988.771,653.617,988.635,653.964,988.365,654.255z
		 M964.398,657.828c2.689,0,5.221,0.408,7.616,1.221c2.388,0.814,4.453,1.943,6.179,3.371c1.737,1.44,3.112,3.147,4.125,5.141
		c1.017,1.986,1.525,4.185,1.525,6.604c0,2.412-0.508,4.629-1.525,6.652c-1.014,2.023-2.406,3.76-4.166,5.231
		c-1.761,1.471-3.828,2.614-6.18,3.421c-2.364,0.82-4.917,1.228-7.664,1.228c-2.692,0-5.204-0.408-7.527-1.228
		c-2.334-0.807-4.364-1.95-6.097-3.421c-1.727-1.471-3.105-3.208-4.115-5.231c-1.023-2.023-1.529-4.24-1.529-6.652
		c0-2.419,0.505-4.618,1.529-6.604c1.01-1.993,2.389-3.701,4.115-5.141c1.733-1.428,3.781-2.558,6.142-3.371
		C959.184,658.235,961.709,657.828,964.398,657.828z M976.808,641.929c-0.266,0.358-0.645,0.539-1.119,0.539h-23.391
		c-0.239,0-0.522-0.126-0.85-0.394c-0.327-0.256-0.491-0.65-0.491-1.172v-5.576c0-0.456,0.164-0.814,0.491-1.075
		c0.328-0.261,0.611-0.389,0.85-0.389h23.391c0.416,0,0.778,0.159,1.072,0.486c0.3,0.327,0.45,0.688,0.45,1.075v5.381
		C977.211,641.193,977.074,641.575,976.808,641.929z M1004.409,725.084c-0.269,0.297-0.587,0.44-0.942,0.44h-7.616
		c-0.362,0-0.675-0.143-0.942-0.44c-0.273-0.29-0.399-0.608-0.399-0.928v-16.831c0-0.716-0.14-1.172-0.409-1.373
		c-0.266-0.193-0.703-0.29-1.3-0.29h-40.503c-0.297,0-0.58-0.111-0.85-0.341c-0.266-0.225-0.402-0.503-0.402-0.833v-6.749
		c0-0.389,0.136-0.693,0.402-0.923c0.27-0.237,0.553-0.346,0.85-0.346h46.505c2.273,0,3.842,0.527,4.705,1.566
		c0.87,1.039,1.304,2.802,1.304,5.287v20.833C1004.812,724.476,1004.675,724.794,1004.409,725.084z M964.398,666.34
		c-2.808,0-5.129,0.728-6.944,2.199c-1.826,1.471-2.737,3.348-2.737,5.627c0,1.172,0.239,2.247,0.716,3.226
		c0.478,0.985,1.15,1.829,2.02,2.546c0.867,0.716,1.89,1.288,3.088,1.713c1.198,0.425,2.481,0.631,3.856,0.631
		c2.808,0,5.118-0.783,6.94-2.344c1.826-1.561,2.733-3.494,2.733-5.772c0-2.279-0.891-4.156-2.689-5.627
		C969.595,667.068,967.261,666.34,964.398,666.34z M1017.938,669.469c-0.266,0.261-0.584,0.389-0.945,0.389h-12.096v21.331
		c0,0.911-0.386,1.367-1.167,1.367h-7.971c-0.778,0-1.164-0.486-1.164-1.464v-56.937c0-0.844,0.386-1.269,1.164-1.269h7.971
		c0.781,0,1.167,0.425,1.167,1.269v26.317h12.096c0.362,0,0.679,0.109,0.945,0.339c0.266,0.225,0.403,0.505,0.403,0.833v6.945
		C1018.341,668.916,1018.205,669.208,1017.938,669.469z"/>
	<path style="fill:#2A378F;" d="M1042.714,671.127h7.435c0.839,0,1.255,0.493,1.255,1.471v27.195h10.035v-27.195
		c0-0.978,0.416-1.471,1.252-1.471h7.442c0.836,0,1.252,0.493,1.252,1.471v27.195h28.048c0.301,0,0.614,0.164,0.942,0.491
		c0.327,0.327,0.491,0.657,0.491,0.978v6.459c0,0.328-0.164,0.65-0.491,0.978c-0.328,0.327-0.641,0.486-0.942,0.486h-76.969
		c-0.423,0-0.751-0.159-0.993-0.486c-0.236-0.328-0.358-0.65-0.358-0.978v-6.459c0-0.394,0.123-0.729,0.358-1.026
		c0.242-0.292,0.57-0.443,0.993-0.443h18.995v-27.195C1041.462,671.62,1041.878,671.127,1042.714,671.127z M1090.833,646.576
		c0,8.803-0.239,16.822-0.717,24.064c-0.481,7.243-1.139,13.275-1.976,18.1c-0.116,0.517-0.311,0.996-0.58,1.416
		c-0.27,0.425-0.642,0.607-1.119,0.541l-7.35-0.59c-0.478-0.055-0.761-0.261-0.85-0.584c-0.092-0.327-0.075-0.752,0.048-1.276
		c0.413-2.411,0.774-5.212,1.075-8.408c0.3-3.195,0.539-6.471,0.717-9.831c0.174-3.359,0.297-6.689,0.358-9.982
		c0.058-3.286,0.085-6.277,0.085-8.955c0-0.911-0.191-1.476-0.58-1.708c-0.389-0.224-1-0.34-1.836-0.34h-45.253
		c-0.304,0-0.597-0.116-0.897-0.353c-0.297-0.218-0.444-0.498-0.444-0.826v-7.041c0-0.396,0.147-0.687,0.444-0.887
		c0.3-0.189,0.594-0.287,0.897-0.287h51.978c1.907,0,3.385,0.56,4.429,1.665C1090.311,642.401,1090.833,644.164,1090.833,646.576z"
		/>
</g>
<g>
	<path style="fill:#76787B;" d="M451.413,195.309h37.909v56.511h-37.909V195.309z M463.24,242.258h13.997v-37.297H463.24V242.258z
		 M511.751,193.745v23.384h10.434v10.175h-10.434v42.859h-11.823v-76.418H511.751z"/>
	<path style="fill:#76787B;" d="M572.785,224.09c0,4.169-0.519,8.071-1.566,11.692c-1.037,3.622-2.522,6.768-4.432,9.436
		c-1.969,2.721-4.289,4.866-6.957,6.43c-2.665,1.564-5.62,2.347-8.865,2.347c-3.19,0-6.104-0.783-8.738-2.347
		c-2.634-1.565-4.883-3.709-6.739-6.43c-1.914-2.668-3.406-5.814-4.477-9.436c-1.075-3.621-1.607-7.522-1.607-11.692
		c0-4.175,0.532-8.06,1.607-11.653c1.071-3.595,2.563-6.751,4.477-9.476c1.856-2.665,4.105-4.782,6.739-6.347
		c2.634-1.565,5.548-2.348,8.738-2.348c3.245,0,6.2,0.783,8.865,2.348c2.668,1.564,4.989,3.682,6.957,6.347
		c1.911,2.725,3.395,5.881,4.432,9.476C572.266,216.03,572.785,219.914,572.785,224.09z M560.699,224.001
		c0-2.783-0.232-5.374-0.696-7.783c-0.461-2.405-1.099-4.477-1.911-6.215c-0.87-1.737-1.897-3.102-3.088-4.086
		c-1.187-0.986-2.535-1.479-4.04-1.479c-1.45,0-2.77,0.493-3.958,1.479c-1.187,0.984-2.184,2.349-2.999,4.086
		c-0.867,1.797-1.535,3.902-1.999,6.308c-0.464,2.402-0.696,5.024-0.696,7.865c0,2.9,0.232,5.535,0.696,7.913
		c0.464,2.375,1.133,4.405,1.999,6.084c0.816,1.742,1.812,3.085,2.999,4.044c1.188,0.954,2.535,1.435,4.044,1.435
		c1.447,0,2.767-0.481,3.955-1.435c1.191-0.959,2.218-2.302,3.088-4.044c0.812-1.74,1.45-3.811,1.911-6.217
		C560.467,229.551,560.699,226.899,560.699,224.001z M593.305,193.745v76.418h-11.827v-76.418H593.305z"/>
	<path style="fill:#76787B;" d="M635.299,194.613h12.083v10.262c0,2.783,0.611,5.547,1.829,8.298
		c1.215,2.755,2.951,5.347,5.214,7.783c2.549,2.783,5.62,5.188,9.216,7.218c3.593,2.029,7.595,3.566,11.997,4.605l-7.217,7.394
		c-2.781-0.638-5.535-1.641-8.258-3.001c-2.726-1.365-5.31-2.941-7.742-4.74c-2.378-1.74-4.521-3.622-6.432-5.654
		c-1.907-2.025-3.415-4.025-4.517-5.999c-1.037,2.032-2.559,4.059-4.521,6.087c-1.976,2.028-4.149,3.912-6.524,5.651
		c-2.433,1.798-5.036,3.378-7.82,4.738c-2.784,1.362-5.484,2.334-8.087,2.918l-7.565-7.304c4.347-0.93,8.271-2.378,11.782-4.349
		c3.505-1.969,6.531-4.291,9.087-6.957c2.433-2.491,4.286-5.158,5.558-7.998c1.273-2.837,1.918-5.739,1.918-8.691V194.613z
		 M607.125,252.866h68.428v9.648h-68.428V252.866z"/>
	<path style="fill:#76787B;" d="M687.987,252.17v-56.861h37.384v9.652h-25.387v13.041h22.425v9.389h-22.425v15.213h20.602
		c0.986,0,2.129-0.012,3.429-0.043c1.31-0.031,2.597-0.097,3.873-0.215c1.215-0.119,2.378-0.246,3.484-0.392
		c1.092-0.145,1.965-0.334,2.6-0.565v9.216c-2.255,0.638-4.647,1.058-7.169,1.261c-2.521,0.201-5.002,0.304-7.439,0.304H687.987z
		 M726.06,215.999h11.915v-22.254h11.823v76.418h-11.823v-43.99H726.06V215.999z"/>
	<path style="fill:#76787B;" d="M831.96,253.037v9.566h-68.339v-9.566h21.125v-32.776h11.912v32.776H831.96z M769.449,204.961
		v-9.652h54.684v29.91c0,5.04-0.334,9.387-1.003,13.041c-0.669,3.648-1.778,7.041-3.347,10.17h-11.387
		c0.986-2.025,1.733-4.059,2.255-6.084c0.526-2.032,0.904-4.031,1.136-6c0.225-2.029,0.358-4.028,0.389-5.999
		c0.027-1.972,0.041-3.972,0.041-6v-19.386H769.449z"/>
</g>
<g>
</g>
<g>
</g>
<g>
</g>
<g>
</g>
<g>
</g>
<g>
</g>
<g>
</g>
<g>
</g>
<g>
</g>
<g>
</g>
<g>
</g>
<g>
</g>
<g>
</g>
<g>
</g>
<g>
</g>
</svg>
