<svg width="24" height="24" viewBox="0 0 24 24" fill="none" xmlns="http://www.w3.org/2000/svg">
<path d="M21.4569 10.0566C21.8338 9.52612 21.4534 9.1643 20.8029 9.18272C20.7705 9.18363 20.7381 9.18409 20.7055 9.18409C18.8416 9.18409 17.3586 7.67432 17.3586 5.81036C17.3586 5.6398 17.4462 5.2678 17.4706 5.10403C17.5666 4.46055 17.165 4.05008 16.5932 4.36045C15.3067 5.05877 14.1135 6.3143 14.1135 7.88104C14.1135 10.1592 15.9774 11.8467 18.2556 11.8467C19.6445 11.8467 20.7094 11.1087 21.4569 10.0566Z" fill="#FFB02E"/>
<path d="M2.20841 22.5H6.8069L9.56591 21.637L12.3249 22.5C12.9697 22.5 13.5589 22.108 13.7924 21.52L17.8612 11.1642C17.9835 10.8593 17.75 10.5327 17.4165 10.5327H6.21054C6.01043 10.5327 5.83256 10.6525 5.76586 10.8376L1.55249 21.5744C1.3635 22.01 1.70814 22.5 2.20841 22.5Z" fill="#44911B"/>
<path d="M13.7924 21.5091L17.8612 11.1534C17.9835 10.8485 17.7501 10.5218 17.4166 10.5218H8.08935C7.88924 10.5218 7.71138 10.6416 7.64468 10.8267L3.06444 22.5H6.81457L9.11104 21.928L12.3361 22.5C12.9697 22.5 13.5589 22.108 13.7924 21.5091Z" fill="#86D72F"/>
<path d="M6.82204 22.4999H12.325C12.3694 22.4999 12.4139 22.4781 12.4584 22.4781V12.362H6.81093V22.4999H6.82204Z" fill="#1C1C1C"/>
<path d="M5.92154 10.6198L10.2016 21.5091C10.4351 22.108 11.0131 22.4891 11.6691 22.4891H21.7856C22.2858 22.4891 22.6305 21.9991 22.4526 21.5418L18.2392 10.8049C18.1725 10.6198 17.9947 10.5 17.7945 10.5H17.4277H6.2217C6.09942 10.5218 5.99936 10.5653 5.92154 10.6198Z" fill="#86D72F"/>
<path d="M15.7379 16.9683H13.5033C13.2143 16.9683 12.9586 16.7941 12.8474 16.5328L11.9136 14.2351C11.7246 13.7778 12.0692 13.2878 12.5695 13.2878H14.804C15.0931 13.2878 15.3488 13.462 15.4599 13.7233L16.3938 16.021C16.5828 16.4783 16.2381 16.9683 15.7379 16.9683Z" fill="#44911B"/>
</svg>
